<svg width="99" height="7" viewBox="0 0 99 7" fill="none" xmlns="http://www.w3.org/2000/svg">
<g id="Group 10">
<path id="Arrow 1" d="M36.4285 3.00002C36.1918 3.00002 35.9999 3.1919 35.9999 3.42859C35.9999 3.66528 36.1918 3.85716 36.4285 3.85716V3.00002ZM98.4458 3.73163C98.6132 3.56427 98.6132 3.29291 98.4458 3.12554L95.7184 0.398131C95.551 0.230764 95.2797 0.230764 95.1123 0.398131C94.9449 0.565499 94.9449 0.836855 95.1123 1.00422L97.5367 3.42859L95.1123 5.85296C94.9449 6.02032 94.9449 6.29168 95.1123 6.45905C95.2797 6.62641 95.551 6.62641 95.7184 6.45905L98.4458 3.73163ZM36.4285 3.85716H98.1428V3.00002H36.4285V3.85716Z" fill="#DBB778"/>
<path id="Arrow 3" opacity="0.5" d="M21.5715 3.00002C21.8082 3.00002 22.0001 3.1919 22.0001 3.42859C22.0001 3.66528 21.8082 3.85716 21.5715 3.85716L21.5715 3.00002ZM0.69706 3.73164C0.529692 3.56427 0.529692 3.29291 0.69706 3.12554L3.42447 0.398133C3.59184 0.230765 3.8632 0.230765 4.03056 0.398133C4.19793 0.5655 4.19793 0.836857 4.03056 1.00422L1.6062 3.42859L4.03056 5.85296C4.19793 6.02032 4.19793 6.29168 4.03056 6.45905C3.8632 6.62642 3.59184 6.62642 3.42447 6.45905L0.69706 3.73164ZM21.5715 3.85716L1.0001 3.85716L1.0001 3.00002L21.5715 3.00002L21.5715 3.85716Z" fill="white"/>
<circle id="Ellipse 2" cx="28.9999" cy="3.42857" r="3.42857" fill="white"/>
</g>
</svg>
