<?xml version="1.0" encoding="UTF-8"?>
<!DOCTYPE svg PUBLIC "-//W3C//DTD SVG 1.1//EN" "http://www.w3.org/Graphics/SVG/1.1/DTD/svg11.dtd">
<svg xmlns="http://www.w3.org/2000/svg" version="1.1" width="5970px" height="1355px" style="shape-rendering:geometricPrecision; text-rendering:geometricPrecision; image-rendering:optimizeQuality; fill-rule:evenodd; clip-rule:evenodd" xmlns:xlink="http://www.w3.org/1999/xlink">
<g><path style="opacity:0.993" fill="#dab777" d="M -0.5,522.5 C -0.5,522.167 -0.5,521.833 -0.5,521.5C 51.1018,515.914 102.435,508.414 153.5,499C 303.807,471.139 453.14,438.805 601.5,402C 749.791,364.511 898.124,327.177 1046.5,290C 1234.84,242.583 1424.17,199.583 1614.5,161C 1859.54,116.596 2106.54,91.2631 2355.5,85C 2633.33,77.8502 2908,103.85 3179.5,163C 3394.59,210.586 3602.26,279.92 3802.5,371C 3869.17,402 3935.83,433 4002.5,464C 4089.44,504.426 4178.77,538.76 4270.5,567C 4343.22,587.675 4417.22,601.675 4492.5,609C 4570.53,616.403 4648.53,624.069 4726.5,632C 5076.48,675.828 5393.81,800.161 5678.5,1005C 5780.71,1080.17 5875.38,1164.5 5962.5,1258C 5961.17,1258.67 5959.83,1258.67 5958.5,1258C 5676.46,1011.99 5350.46,851.991 4980.5,778C 4783.72,740.328 4585.72,731.995 4386.5,753C 4298.32,763.264 4210.32,774.931 4122.5,788C 3910.43,819.9 3698.43,852.233 3486.5,885C 3332.72,908.514 3178.39,927.514 3023.5,942C 2865.43,956.735 2707.1,960.735 2548.5,954C 2405.41,947.369 2264.08,928.035 2124.5,896C 1887.46,835.543 1657.12,756.21 1433.5,658C 1338.58,615.542 1244.92,570.375 1152.5,522.5C 1151.48,521.998 1151.31,521.332 1152,520.5C 1495.06,650.644 1847.23,748.477 2208.5,814C 2370.01,833.443 2532.01,839.11 2694.5,831C 2854.56,822.728 3013.89,807.061 3172.5,784C 3366.27,755.319 3559.93,725.986 3753.5,696C 3859.34,680.451 3965.34,666.118 4071.5,653C 4023.11,635.648 3975.11,617.315 3927.5,598C 3828.62,555.895 3729.29,514.895 3629.5,475C 3295.64,352.696 2950.98,284.362 2595.5,270C 2376.35,261.553 2157.68,268.553 1939.5,291C 1807.78,304.215 1676.45,320.548 1545.5,340C 1280.68,380.747 1016.35,424.414 752.5,471C 636.458,487.671 520.125,502.005 403.5,514C 297.434,524.93 191.101,529.264 84.5,527C 56.1054,526.307 27.7721,524.807 -0.5,522.5 Z"/></g>
</svg>
