<?xml version="1.0" encoding="UTF-8"?>
<svg id="Layer_1" data-name="Layer 1" xmlns="http://www.w3.org/2000/svg" viewBox="0 0 300 300">
  <path d="M169.56,69.55h-39.12c-1.7,0-3.07,1.37-3.07,3.07v36.75c0,1.7,1.37,3.07,3.07,3.07h39.12c1.7,0,3.07-1.37,3.07-3.07v-36.75c0-1.7-1.37-3.07-3.07-3.07ZM130.44,72.62h39.12v35.29h-39.12v-35.29ZM168.03,106.38h-36.06v-9.84c0-1.08.38-2.12,1.07-2.95l8.94-10.72c.96-1.12,2.72-1.05,3.59.14l10.18,13.79,5.23-5.52c.91-.96,2.43-.96,3.35,0l2.61,3.09c.7.83,1.09,1.88,1.09,2.97v9.05ZM158.06,80.68c0-2.33,1.89-4.22,4.22-4.22s4.22,1.89,4.22,4.22-1.89,4.22-4.22,4.22-4.22-1.89-4.22-4.22Z" fill="#e6e9ee" stroke-width="0"/>
  <g>
    <path d="M285.67,197.67H14.33c-1.93,0-3.5-1.57-3.5-3.5s1.57-3.5,3.5-3.5h271.33c1.93,0,3.5,1.57,3.5,3.5s-1.57,3.5-3.5,3.5Z" fill="#d8dbe0" stroke-width="0"/>
    <path d="M285.67,235.33H14.33c-1.38,0-2.5-1.12-2.5-2.5s1.12-2.5,2.5-2.5h271.33c1.38,0,2.5,1.12,2.5,2.5s-1.12,2.5-2.5,2.5Z" fill="#d8dbe0" stroke-width="0"/>
    <path d="M285.67,255.67H14.33c-1.38,0-2.5-1.12-2.5-2.5s1.12-2.5,2.5-2.5h271.33c1.38,0,2.5,1.12,2.5,2.5s-1.12,2.5-2.5,2.5Z" fill="#d8dbe0" stroke-width="0"/>
    <path d="M285.67,276.01H14.33c-1.38,0-2.5-1.12-2.5-2.5s1.12-2.5,2.5-2.5h271.33c1.38,0,2.5,1.12,2.5,2.5s-1.12,2.5-2.5,2.5Z" fill="#d8dbe0" stroke-width="0"/>
  </g>
  <path d="M287.96,172.5H12.04c-1.4,0-2.54-1.12-2.54-2.5V12c0-1.38,1.14-2.5,2.54-2.5h275.92c1.4,0,2.54,1.12,2.54,2.5v158c0,1.38-1.14,2.5-2.54,2.5ZM14.58,167.5h270.83V14.5H14.58v153Z" fill="#d8dbe0" stroke-width="0"/>
</svg>