<?xml version="1.0" encoding="UTF-8"?>
<svg id="Layer_1" data-name="Layer 1" xmlns="http://www.w3.org/2000/svg" version="1.1" viewBox="0 0 300 300">
  <defs>
    <style>
      .cls-1 {
        fill: #000;
        stroke-width: 0px;
      }
    </style>
  </defs>
  <g>
    <path class="cls-1" d="M284,132.2h-115.8c-1.4,0-2.5-1.1-2.5-2.5s1.1-2.5,2.5-2.5h115.8c1.4,0,2.5,1.1,2.5,2.5s-1.1,2.5-2.5,2.5Z"/>
    <path class="cls-1" d="M284,152.5h-115.8c-1.4,0-2.5-1.1-2.5-2.5s1.1-2.5,2.5-2.5h115.8c1.4,0,2.5,1.1,2.5,2.5s-1.1,2.5-2.5,2.5Z"/>
    <path class="cls-1" d="M284,172.8h-115.8c-1.4,0-2.5-1.1-2.5-2.5s1.1-2.5,2.5-2.5h115.8c1.4,0,2.5,1.1,2.5,2.5s-1.1,2.5-2.5,2.5Z"/>
  </g>
  <g>
    <path class="cls-1" d="M134.6,213.9H28c-8,0-14.5-6.5-14.5-14.5v-98.7c0-8,6.5-14.5,14.5-14.5h106.6c8,0,14.5,6.5,14.5,14.5v98.7c0,8-6.5,14.5-14.5,14.5ZM28,92.7c-4.4,0-7.9,3.6-7.9,7.9v98.7c0,4.4,3.6,7.9,7.9,7.9h106.6c4.4,0,7.9-3.6,7.9-7.9v-98.7c0-4.4-3.6-7.9-7.9-7.9H28Z"/>
    <g>
      <path class="cls-1" d="M120.8,134.8c7.5,0,13.6-6.1,13.6-13.6s-6.1-13.6-13.6-13.6-13.6,6.1-13.6,13.6,6.1,13.6,13.6,13.6Z"/>
      <path class="cls-1" d="M139.3,174.7c0-3.5-1.2-6.9-3.5-9.6l-8.4-9.9c-2.9-3.1-7.8-3.1-10.8,0l-16.8,17.8-32.7-44.3c-2.8-3.8-8.5-4-11.5-.4l-28.8,34.5c-2.2,2.7-3.4,6-3.4,9.5v26.9c0,2.6,2.1,4.7,4.7,4.7h106.4c2.6,0,4.7-2.1,4.7-4.7v-24.4Z"/>
    </g>
  </g>
</svg>