<?xml version="1.0" encoding="UTF-8"?>
<svg id="Layer_1" data-name="Layer 1" xmlns="http://www.w3.org/2000/svg" version="1.1" viewBox="0 0 300 300">
  <defs>
    <style>
      .cls-1 {
        fill: #0062d8;
      }

      .cls-1, .cls-2 {
        stroke-width: 0px;
      }

      .cls-2 {
        fill: #ee1d24;
      }
    </style>
  </defs>
  <path class="cls-1" d="M187.1,139.6l104.3,74.1c2.5,1.8,2.5,5.4,0,7.2l-104.3,74.1c-2.9,2.1-7,0-7-3.6v-44.3s-168.9,0-168.9,0c-2.4,0-4.4-1.6-4.4-3.7v-52.5c0-2,2-3.7,4.4-3.7h168.9s0-44.1,0-44.1c0-3.6,4.1-5.7,7-3.6Z"/>
  <path class="cls-2" d="M112.9,4.9L8.6,79c-2.5,1.8-2.5,5.4,0,7.2l104.3,74.1c2.9,2.1,7,0,7-3.6v-44.3h168.9c2.4,0,4.4-1.6,4.4-3.7v-52.5c0-2-2-3.7-4.4-3.7H119.9V8.5c0-3.6-4.1-5.7-7-3.6Z"/>
</svg>