<?xml version="1.0" encoding="UTF-8"?>
<svg id="Layer_1" data-name="Layer 1" xmlns="http://www.w3.org/2000/svg" version="1.1" viewBox="0 0 400 200">
  <defs>
    <style>
      .cls-1 {
        fill: #00aeef;
      }

      .cls-1, .cls-2 {
        stroke-width: 0px;
      }

      .cls-2 {
        fill: #ee1d24;
      }
    </style>
  </defs>
  <g>
    <path class="cls-1" d="M374.7,98.6c0-.5,0-.6-.1-.8,0-.1-.9-1.9-.9-1.9,0,0-.2-3.3-.2-3.3s0-.2-.1-.2-.8-.7-.8-.7c-.1-.9-.4-1.6-.4-1.8,0,0,0,0,0,0,0,0,0,0,0,0,3.9-.5,6.7-1.3,6.9-1.3s.3,0,.3-.1c.7-1,1.1-1.9,1.1-2,0-.1.1-.2,0-.3-.5-1.2-1.4-2.2-1.5-2.2-4.6-.8-8.5-.5-8.5-.5,0,0-.1.1-.2.2,0,0,0,0,0,0,0,0,0,0-.1.1,0,0,0,0,0,0,0,0,0,0,0,.1,0,0,0,0,0,0,0,0,0,0,0,.1,0,0,0,0,0,0,0,.1-.2.2-.2.3,0,0,0,0,0,0,0,0,0,0,0,.1,0,0,0,0,0,0,0,0,0,0,0,.1,0,0,0,0,0,0,0,0,0,0,0,0,0,0,0,0,0,0,0,0,0,0,0,0,0,0,0,0,0,0,0,0,0,0,0,.1,0,0,0,0,0,0,0,0,0,0,0,0,0,0,0,0,0,0,0,0,0,0,0,0,0,0,0,0,0,0h0s0,0,0,0c-3-1.1-4.8-1.5-4.8-1.5,0,0-.5-.4-1.2-.9,0,0,.2,0,.2,0,0,0,0,0,0,0,0,0,0,0,0,0,0,0,0,0,0,0,0,0,0,0,0,0,0,0,0,0,0,0,0,0,0,0,0,0,0,0,0,0,0,0,0,0,0,0,0,0,0,0,0,0,0,0,0,0,0,0,0,0,0,0,0,0,.1,0,0,0,0,0,0,0,0,0,0,0,0,0,.4,0,.8,0,1.1-.1,0,0,0,0,0,0,0,0,0,0,0,0,0,0,0,0,0,0,0,0,0,0,0,0,0,0,0,0,0,0,.5,0,.7-.2.7-.4.7-2.1.3-3.4.2-3.5-.4-.8-1.3-2-1.4-2s-.2,0-.2,0c0,0,0,0,0,0,0,0,0,.1,0,.1s.6,1.1.7,1.2c0,.1.1.4.1.4l-10.1-1.5s0,0,0,0c-.2-.2-2.6-2.5-2.8-2.6-1.3-.8-1.9-.8-2.5-.9s-5.9-.7-6.3-.7c-.4,0-2.5-.2-3-.2-6.8,0-16.7.4-16.7.4h-.4s-9.9-.4-16.7-.4-2.6.2-3,.2c-.4,0-5.7.6-6.3.7-.6,0-1.2.1-2.5.9-.2.1-2.8,2.6-2.8,2.6h0s-10.1,1.5-10.1,1.5h0s0,0,0,0c0,0,0-.2.1-.4,0,0,.7-1.1.7-1.2,0,0,0-.1,0-.1,0,0,0,0,0,0,0,0-.1,0-.1,0,0,0-1,1.2-1.4,2,0,.1-.5,1.4.2,3.5,0,.2.2.4.7.4,0,0,.1,0,.2,0,.2,0,.5,0,.8,0,.3,0,.8,0,1,0-.2.1-.3.3-.4.3h0s-.7.6-.7.6c0,0-1.8.4-4.8,1.5,0,0,0,0,0,0,0,0,0,0,0,0,0,0,0,0,0,0,0,0,0,0,0,0,0,0,0,0,0,0,0,0,0,0,0,0,0,0,0,0,0,0,0,0,0,0,0-.1,0,0,0,0,0,0,0,0,0,0,0-.1,0,0,0,0,0,0,0,0,0,0,0,0,0,0,0,0,0,0,0,0,0,0,0-.1,0,0,0,0,0,0,0,0,0,0,0-.1,0,0,0,0,0,0,0,0-.2-.2-.2-.3,0,0,0,0,0,0,0,0,0,0,0-.1,0,0,0,0,0,0,0,0,0,0,0-.1,0,0,0,0,0,0,0,0,0,0-.1-.1,0,0,0,0,0,0,0,0-.1-.1-.2-.2,0,0,0,0,0,0,0,0,0,0,0,0s0,0-.1,0c0,0-.1,0-.2,0-.2,0-.4,0-.7,0-.2,0-.4,0-.7,0-1.6,0-4,0-6.8.6,0,0-.2.2-.5.5-.1.1-.2.3-.3.5,0,.1-.2.2-.2.4-.2.3-.3.6-.4.8,0,0,0,.1,0,.2,0,0,0,0,0,0,0,0,0,0,0,0,0,.1.4,1,1.1,2,0,0,0,0,0,0,0,0,0,0,0,0,0,0,.2,0,.3,0,.2,0,3,.8,6.9,1.3,0,0,0,0,0,0,0,0,0,0,0,0,0,0,0,0,0,0,0,.2-.3.9-.4,1.8,0,0-.7.6-.8.7s-.1.2-.1.2-.2,3.3-.2,3.3c0,0-.8,1.8-.9,1.9,0,.1,0,.2-.1.8,0,.2-.2,2.9-.2,4.4,0,0-.2,4.1,0,6.9,0,.1,0,.7.9,1.9,0,0,0,.1,0,.2-.1,7.3,0,12.2,0,12.8,0,.8,0,2.7,1.9,2.7.6,0,13.7,0,14.3,0,2.1,0,1.9-.7,1.9-1.2v-3.3c-9.2-.1-16.8-.2-16.9-.3,0,0,0,0,0,0,0,0,0,0,0,0,0,0,0,0,0,0,0,0,0,0,0,0,0,0,0,0,0,0,0,0,0,0,0,0,0,0,0,0,0,0,0,0,0,0,0,0,0,0,0,0,0,0,0,0,0,0,0,0,0,0,0,0,0,0,0,0,0,0,0,0h0s0,0,0,0c0,0,0,0,0,0,0,0,0,0,0,0,0,0,0,0,0,0,0,0,0,0,0,0,0,0,.1,0,.2,0,0,0,0,0,0,0,0,0,0,0,0,0,0,0,0,0,0,0,0,0,.1,0,.2,0,0,0,0,0,0,0,0,0,0,0,0,0,0,0,0,0,.2,0,0,0,0,0,0,0,0,0,.2,0,.2,0,.1,0,.3,0,.4,0,0,0,0,0,.1,0,.4,0,.9,0,1.4,0,0,0,0,0,0,0,0,0,0,0,0,0,.1,0,.3,0,.4,0,.1,0,.2,0,.4,0,.4,0,.8,0,1.3,0,0,0,.1,0,.2,0,1.7,0,3.8,0,6.1,0,0,0,.1,0,.2,0,.6,0,1.2,0,1.8,0,.1,0,.3,0,.4,0,.9,0,1.8,0,2.7,0,.3,0,.6,0,.9,0,.2,0,.4,0,.5,0,.1,0,.2,0,.3,0,.8,0,1.6,0,2.4,0,0,0,.1,0,.2,0,.3,0,.6,0,1,0,.3,0,.5,0,.8,0,.4,0,.9,0,1.3,0,0,0,0,0,0,0,.3,0,.6,0,1,0,.1,0,.2,0,.4,0,.6,0,1.2,0,1.8,0,1.1,0,2.3,0,3.4,0,0,0,0,0,0,0,.6,0,1.1,0,1.7,0,.8,0,1.5,0,2.3,0,.1,0,.3,0,.4,0,.2,0,.5,0,.7,0,1.1,0,2.3,0,3.3,0,.5,0,1,0,1.4,0,.8,0,1.5,0,2.1,0,.3,0,.6,0,.8,0,.1,0,.2,0,.3,0,0,0,.1,0,.2,0,.5,0,.9,0,1.3,0,.1,0,.2,0,.3,0,.3,0,.6,0,.8,0,0,0,0,0,.1,0,.1,0,.2,0,.3,0,.2,0,.3,0,.5,0,.4,0,.7,0,1,0,0,0,0,0,0,0,0,0,0,0,.1,0h0s.7,0,.7,0h0s0,0,0,0c0,0,0,0,0,0,.2,0,.4,0,.7,0,0,0,0,0,0,0,0,0,.2,0,.2,0,.2,0,.3,0,.5,0,.1,0,.2,0,.3,0,0,0,0,0,.1,0,.3,0,.5,0,.8,0,.1,0,.2,0,.3,0,.4,0,.8,0,1.3,0,0,0,.1,0,.2,0,.1,0,.2,0,.3,0,.3,0,.6,0,.8,0,.7,0,1.4,0,2.1,0,.5,0,1,0,1.4,0,1,0,2.1,0,3.3,0,.2,0,.5,0,.7,0,.1,0,.2,0,.4,0,.7,0,1.5,0,2.3,0,.6,0,1.1,0,1.7,0,0,0,0,0,0,0,1.1,0,2.2,0,3.3,0,.6,0,1.2,0,1.8,0,.1,0,.2,0,.3,0,.3,0,.7,0,1,0,0,0,0,0,0,0,.5,0,.9,0,1.4,0,.3,0,.5,0,.8,0,.3,0,.7,0,1,0,0,0,.1,0,.2,0,.8,0,1.6,0,2.4,0,.1,0,.2,0,.3,0,.2,0,.4,0,.5,0,.3,0,.6,0,.9,0,.9,0,1.9,0,2.8,0,.1,0,.3,0,.4,0,.6,0,1.2,0,1.8,0,0,0,.1,0,.2,0,2.3,0,4.3,0,6.1,0,0,0,.1,0,.2,0,.5,0,.9,0,1.3,0,.1,0,.2,0,.3,0,.1,0,.3,0,.4,0,0,0,0,0,0,0,0,0,0,0,0,0,.5,0,1,0,1.4,0,0,0,0,0,.1,0,.1,0,.3,0,.4,0,0,0,.2,0,.2,0,0,0,0,0,0,0,0,0,.1,0,.2,0,0,0,0,0,0,0,0,0,0,0,0,0,0,0,.1,0,.2,0,0,0,0,0,0,0,0,0,0,0,0,0,0,0,0,0,0,0,0,0,0,0,0,0,0,0,.1,0,.2,0,0,0,0,0,0,0,0,0,0,0,0,0,0,0,0,0,0,0,0,0,0,0,0,0,0,0,0,0,0,0h0s0,0,0,0c0,0,0,0,0,0,0,0,0,0,0,0,0,0,0,0,0,0,0,0,0,0,0,0,0,0,0,0,0,0,0,0,0,0,0,0,0,0,0,0,0,0,0,0,0,0,0,0,0,0,0,0,0,0,.1,0,.2-.3.2-.5,0-.2.3-.9.4-1.3,0-.3,0-.5,0-.6,0,.1,0,.3,0,.6,0,.4-.3,1.1-.4,1.3,0,.2,0,.5-.2.5,0,0-7.7.1-16.9.3v3.3c0,.5-.2,1.1,1.9,1.2.6,0,13.7,0,14.3,0,2,0,1.9-1.9,1.9-2.7,0-.7,0-12.9,0-12.9.9-1.2.9-1.7.9-1.9.2-2.8,0-6.9,0-6.9,0-1.4-.2-4.2-.2-4.4ZM356.8,78.1s1.5.7,2,1c.2.1.7.4,1.1.6h0s5.6.6,5.6.6c0,0,0,1.4-.5,1.5-.2,0-2.4.2-2.4.2h-.6c-.7-.5-1.4-1.1-1.7-1.3-.8-.6-3.4-2.6-3.4-2.6h0ZM282.3,81.8c-.5-.1-.5-1.5-.5-1.5l5.6-.6h0c.4-.3.9-.5,1.1-.6.5-.3,2-1,2-1h0s-2.6,1.9-3.4,2.6c-.4.3-1.1.9-1.8,1.4h-1c0,0-1.8-.2-2-.2ZM293.6,76.9c.8-1,1.5-1,1.5-1,8-.8,28.5-.8,28.5-.8s20.6,0,28.5.8c0,0,.8,0,1.5,1,.1.1,4.7,4.6,9.9,11.7,0,0-7.4-.3-12.7.5,0,0-1.5.2-1.7.2-.1,0-3.2.3-11.3,1.6,0,0-13.9-.3-14.4-.3-.5,0-14.4.3-14.4.3-8-1.4-11.1-1.6-11.3-1.6-.1,0-1.7-.2-1.7-.2-5.3-.8-12.7-.5-12.7-.5,5.3-7.2,9.8-11.6,9.9-11.7ZM281.3,95.4c0,0,0-.2.1-.2,0,0,0,0,0,0,0,0,0,0,0,0,0,0,0,0,.2,0,0,0,0,0,0,0,0,0,.1,0,.2,0,.1,0,.2,0,.3,0,.3,0,.6.1.9.2,0,0,.2,0,.3,0,0,0,.2,0,.3,0,1.8.4,4.9,1.1,8.7,2.4-.5-.6-5.8-7.2-9-8.5,0,0,0,0,0,0-.4-.2-1-.3-1-.3h0c3.6-.2,9.5.2,9.6.2s2.9.3,2.9.3c0,0,0,0,0,0,0,0-1.9.4-2.1.4-.1,0-.3,0-.5,0-3.9-.7-8.6-.7-8.8-.7-.1,0-.2,0-.2,0,3.3,1.4,8.9,8.3,9.1,8.6l3,1h0s0,0,0,0c0,0,0,0,0,0v.4c.1,0,.6,1.2.6,1.2h.2c0,0,0,0,0,0,1.6.1,5.3.8,6.7,1,.3,0,.5,0,.6.1.1,0,15.5.5,15.7.5l4.5-.8h0s4.5.8,4.5.8c.1,0,15.5-.5,15.6-.5,0,0,.2,0,.6-.1,1.4-.3,5.1-.9,6.7-1h0s.2,0,.2,0l.5-1.2v-.4c.1,0,.1,0,.2,0h0s3-1.1,3-1.1c.2-.3,5.8-7.2,9.1-8.6,0,0,0,0-.2,0-.2,0-4.9,0-8.8.7-.2,0-.4,0-.5,0-.1,0-2-.4-2.1-.4,0,0,0,0,0,0,0,0,2.8-.3,2.9-.3s6.1-.4,9.6-.3h0c0,.1-.6.2-1,.4,0,0,0,0,0,0-3.2,1.3-8.6,7.9-9,8.5,3.8-1.3,6.9-2,8.7-2.4,0,0,0,0,0,0,.2,0,.3,0,.5-.1,0,0,.1,0,.2,0,.2,0,.4,0,.6-.1,0,0,0,0,0,0,0,0,.2,0,.3,0,0,0,.1,0,.2,0,0,0,0,0,0,0,0,0,.1,0,.2,0,0,0,0,0,0,0,0,0,0,0,0,0,0,0,.1.1.1.2,0,0,0,.1,0,.2,0,0,0,0,0,0,0,0,0,0,0,0,0,0,0,0,0,0,0,0,0,0,0,0,0,0,0,0,0,0,0,0,0,0,0,0,0,0,0,0,0,0,0,0,0,0,0,0,0,0,0,0,0,.1,0,0,0,0,0,0,0,0,0,0,0,.2,0,0,0,0,0,0,0,0,0,0,0,.1,0,0,0,0,0,0,0,.1,0,.3-.2.4,0,0,0,0,0,0,0,0,0,.1,0,.2,0,0,0,0,0,0,0,0,0,.2-.1.3,0,0,0,0,0,0,0,0,0,.2-.1.3,0,0,0,0,0,0,0,0,0,.2-.1.3,0,0,0,0,0,0,0,.1,0,.2-.1.3,0,0,0,0,0,0,0,.1,0,.2-.1.3,0,0,0,0,0,0-.2.5-.5,1.1-.8,1.8h0s0,0,0,0c-.3.7-.7,1.6-1.2,2.5,0,.1-.3.1-.5.1-.1,0-1.5,0-2.8.1,0,0,0,0,0,0-.2,0-.5,0-.7,0,0,0,0,0,0,0-.1,0-.2,0-.3,0-.6,0-.9,0-1,.1-.2,0-.4,0-.5,0-.2,0-.3,0-.5-.1l-4.6-2.6c-.4-.2-.6-.3-.7-.3h0s-.2,0-.2,0c-1.6.1-5.2.8-6.6,1-.3,0-.5,0-.6.1-.1,0-15,.5-15.7.5l-4.5-.8-4.5.8c-.6,0-15.5-.5-15.7-.5,0,0-.2,0-.6-.1-1.4-.3-5.1-.9-6.6-1h-.2c0,0,0,0,0,0,0,0-.3.2-.7.3l-4.6,2.6c-.2,0-.3.1-.5.1-.1,0-.3,0-.5,0,0,0-.4,0-1-.1,0,0-.2,0-.3,0,0,0,0,0,0,0-.2,0-.5,0-.7,0,0,0,0,0,0,0-1.3,0-2.7-.1-2.8-.1-.2,0-.4,0-.5-.1-.4-.9-.8-1.7-1.2-2.5h0c-.3-.7-.6-1.3-.8-1.8,0,0,0,0,0,0,0-.1,0-.2-.1-.3,0,0,0,0,0,0,0-.1-.1-.2-.1-.3,0,0,0,0,0,0,0,0,0-.2-.1-.3,0,0,0,0,0,0,0,0,0-.2-.1-.3,0,0,0,0,0,0,0,0,0-.2-.1-.3,0,0,0,0,0,0,0,0,0-.1,0-.2,0,0,0,0,0,0,0-.2-.1-.3-.2-.4,0,0,0,0,0,0,0,0,0,0,0-.1,0,0,0,0,0,0,0,0,0-.1,0-.2,0,0,0,0,0,0,0,0,0,0,0-.1,0,0,0,0,0,0,0,0,0,0,0,0,0,0,0,0,0,0,0,0,0,0,0,0,0,0,0,0,0,0,0,0,0,0,0,0,0,0,0,0,0,0,0,0,0,0,0,0,0,0,0-.1,0-.2ZM367,116.4c-.7,1.3-1.9,2.8-2.2,3.2-.3.4-.7.5-1,.5s-13.2,0-13.9,0c-.7,0-1.2-.3-1.3-.4-3.4-1.7-4.7-2.5-5-2.7.7,0,1.4,0,2.1,0l5.4-.2c.2,0,.4,0,.5,0l7-.2c1.7,0,2.4-.1,2.5-.1,4-.3,4.7-.4,4.7-.4s0-.2,0-.2c0,0,0-.1-.1-.1-2.7-.5-3.4-.5-4-.5-.5,0-.6,0-.7,0s-.5.2-.7.3c-.2,0-.2,0-.9.1-.1,0-.2,0-.4,0h0c-3.7.1-12.7.3-13.2.3s-1.6,0-2,0-3.9-.7-4.6-.7c-.7,0-2.5,0-2.5,0,.2,0,.2.3.2.3v1.1c.3,0,.6,0,.9,0l.9,2.7h0s-.5-1.5-.5-1.5h-29.1l-.5,1.5h0s.9-2.8.9-2.8c0,0,0,0,0,0h0s0,0,0,0h0c.3,0,.5,0,.8,0v-1.1s0-.3.2-.3c0,0-1.8,0-2.5,0-.7,0-4.2.6-4.6.7-.4,0-1.4,0-2,0s-9.5-.1-13.2-.3h0c-.1,0-.2,0-.4,0-.7,0-.8,0-.9-.1-.2,0-.6-.3-.7-.3,0,0-.2,0-.7,0-.5,0-1.3,0-4,.5,0,0-.1,0-.1.1s0,.1,0,.2.7.1,4.7.4c.1,0,.8,0,2.5.1l7,.2c0,0,.3,0,.5,0l5.4.2c.7,0,1.4,0,2.1,0-.3.2-1.6,1-5,2.7-.1,0-.6.3-1.3.4-.7,0-13.7,0-13.9,0s-.7,0-1-.5c-.3-.4-1.5-1.9-2.2-3.2,0-.2-.2-.4-.2-.6,0-.2,0-.4.2-.6.1-.3,1.6-3.4,3.3-5.2.2-.2.6-.8,2.1-.6.8.1,11.2,2.5,38,3.1,26.8-.6,37.3-3,38-3.1,1.5-.2,1.9.4,2.1.6,1.7,1.8,3.1,5,3.3,5.2.1.3.2.5.2.6,0,.3-.1.5-.2.6Z"/>
    <path class="cls-2" d="M127.3,98.6c0-.5,0-.6-.1-.8,0-.1-.9-1.9-.9-1.9,0,0-.2-3.3-.2-3.3s0-.2-.1-.2-.8-.7-.8-.7c-.1-.9-.4-1.6-.4-1.8,0,0,0,0,0,0,0,0,0,0,0,0,3.9-.5,6.7-1.3,6.9-1.3s.3,0,.3-.1c.7-1,1.1-1.9,1.1-2,0-.1.1-.2,0-.3-.5-1.2-1.4-2.2-1.5-2.2-4.6-.8-8.5-.5-8.5-.5,0,0-.1.1-.2.2,0,0,0,0,0,0,0,0,0,0-.1.1,0,0,0,0,0,0,0,0,0,0,0,.1,0,0,0,0,0,0,0,0,0,0,0,.1,0,0,0,0,0,0,0,.1-.2.2-.2.3,0,0,0,0,0,0,0,0,0,0,0,.1,0,0,0,0,0,0,0,0,0,0,0,.1,0,0,0,0,0,0,0,0,0,0,0,0,0,0,0,0,0,0,0,0,0,0,0,0,0,0,0,0,0,0,0,0,0,0,0,.1,0,0,0,0,0,0,0,0,0,0,0,0,0,0,0,0,0,0,0,0,0,0,0,0,0,0,0,0,0,0h0s0,0,0,0c-3-1.1-4.8-1.5-4.8-1.5,0,0-.5-.4-1.2-.9,0,0,.2,0,.2,0,0,0,0,0,0,0,0,0,0,0,0,0,0,0,0,0,0,0,0,0,0,0,0,0,0,0,0,0,0,0,0,0,0,0,0,0,0,0,0,0,0,0,0,0,0,0,0,0,0,0,0,0,0,0,0,0,0,0,0,0,0,0,0,0,.1,0,0,0,0,0,0,0,0,0,0,0,0,0,.4,0,.8,0,1.1-.1,0,0,0,0,0,0,0,0,0,0,0,0,0,0,0,0,0,0,0,0,0,0,0,0,0,0,0,0,0,0,.5,0,.7-.2.7-.4.7-2.1.3-3.4.2-3.5-.4-.8-1.3-2-1.4-2s-.2,0-.2,0c0,0,0,0,0,0,0,0,0,.1,0,.1s.6,1.1.7,1.2c0,.1.1.4.1.4l-10.1-1.5s0,0,0,0c-.2-.2-2.6-2.5-2.8-2.6-1.3-.8-1.9-.8-2.5-.9-.6,0-5.9-.7-6.3-.7-.4,0-2.5-.2-3-.2-6.8,0-16.7.4-16.7.4h-.4s-9.9-.4-16.7-.4-2.6.2-3,.2c-.4,0-5.7.6-6.3.7-.6,0-1.2.1-2.5.9-.2.1-2.8,2.6-2.8,2.6h0s-10.1,1.5-10.1,1.5h0s0,0,0,0c0,0,0-.2.1-.4,0,0,.7-1.1.7-1.2,0,0,0-.1,0-.1,0,0,0,0,0,0,0,0-.1,0-.1,0,0,0-1,1.2-1.4,2,0,.1-.5,1.4.2,3.5,0,.2.2.4.7.4,0,0,.1,0,.2,0,.2,0,.5,0,.8,0,.3,0,.8,0,1,0-.2.1-.3.3-.4.3h0s-.7.6-.7.6c0,0-1.8.4-4.8,1.5,0,0,0,0,0,0,0,0,0,0,0,0,0,0,0,0,0,0,0,0,0,0,0,0,0,0,0,0,0,0,0,0,0,0,0,0,0,0,0,0,0,0,0,0,0,0,0-.1,0,0,0,0,0,0,0,0,0,0,0-.1,0,0,0,0,0,0,0,0,0,0,0,0,0,0,0,0,0,0,0,0,0,0,0-.1,0,0,0,0,0,0,0,0,0,0,0-.1,0,0,0,0,0,0,0,0-.2-.2-.2-.3,0,0,0,0,0,0,0,0,0,0,0-.1,0,0,0,0,0,0,0,0,0,0,0-.1,0,0,0,0,0,0,0,0,0,0-.1-.1,0,0,0,0,0,0,0,0-.1-.1-.2-.2,0,0,0,0,0,0,0,0,0,0,0,0s0,0-.1,0c0,0-.1,0-.2,0-.2,0-.4,0-.7,0-.2,0-.4,0-.7,0-1.6,0-4,0-6.8.6,0,0-.2.2-.5.5-.1.1-.2.3-.3.5,0,.1-.2.2-.2.4-.2.3-.3.6-.4.8,0,0,0,.1,0,.2,0,0,0,0,0,0,0,0,0,0,0,0,0,.1.4,1,1.1,2,0,0,0,0,0,0,0,0,0,0,0,0,0,0,.2,0,.3,0,.2,0,3,.8,6.9,1.3,0,0,0,0,0,0,0,0,0,0,0,0,0,0,0,0,0,0,0,.2-.3.9-.4,1.8,0,0-.7.6-.8.7s-.1.2-.1.2-.2,3.3-.2,3.3c0,0-.8,1.8-.9,1.9,0,.1,0,.2-.1.8,0,.2-.2,2.9-.2,4.4,0,0-.2,4.1,0,6.9,0,.1,0,.7.9,1.9,0,0,0,.1,0,.2-.1,7.3,0,12.2,0,12.8,0,.8,0,2.7,1.9,2.7.6,0,13.7,0,14.3,0,2.1,0,1.9-.7,1.9-1.2v-3.3c-9.2-.1-16.8-.2-16.9-.3,0,0,0,0,0,0,0,0,0,0,0,0,0,0,0,0,0,0,0,0,0,0,0,0,0,0,0,0,0,0,0,0,0,0,0,0,0,0,0,0,0,0,0,0,0,0,0,0,0,0,0,0,0,0,0,0,0,0,0,0,0,0,0,0,0,0,0,0,0,0,0,0h0s0,0,0,0c0,0,0,0,0,0,0,0,0,0,0,0,0,0,0,0,0,0,0,0,0,0,0,0,0,0,.1,0,.2,0,0,0,0,0,0,0,0,0,0,0,0,0,0,0,0,0,0,0,0,0,.1,0,.2,0,0,0,0,0,0,0,0,0,0,0,0,0,0,0,0,0,.2,0,0,0,0,0,0,0,0,0,.2,0,.2,0,.1,0,.3,0,.4,0,0,0,0,0,.1,0,.4,0,.9,0,1.4,0,0,0,0,0,0,0,0,0,0,0,0,0,.1,0,.3,0,.4,0,.1,0,.2,0,.4,0,.4,0,.8,0,1.3,0,0,0,.1,0,.2,0,1.7,0,3.8,0,6.1,0,0,0,.1,0,.2,0,.6,0,1.2,0,1.8,0,.1,0,.3,0,.4,0,.9,0,1.8,0,2.7,0,.3,0,.6,0,.9,0,.2,0,.4,0,.5,0,.1,0,.2,0,.3,0,.8,0,1.6,0,2.4,0,0,0,.1,0,.2,0,.3,0,.6,0,1,0,.3,0,.5,0,.8,0,.4,0,.9,0,1.3,0,0,0,0,0,0,0,.3,0,.6,0,1,0,.1,0,.2,0,.4,0,.6,0,1.2,0,1.8,0,1.1,0,2.3,0,3.4,0,0,0,0,0,0,0,.6,0,1.1,0,1.7,0,.8,0,1.5,0,2.3,0,.1,0,.3,0,.4,0,.2,0,.5,0,.7,0,1.1,0,2.3,0,3.3,0,.5,0,1,0,1.4,0,.8,0,1.5,0,2.1,0,.3,0,.6,0,.8,0,.1,0,.2,0,.3,0,0,0,.1,0,.2,0,.5,0,.9,0,1.3,0,.1,0,.2,0,.3,0,.3,0,.6,0,.8,0,0,0,0,0,.1,0,.1,0,.2,0,.3,0,.2,0,.3,0,.5,0,.4,0,.7,0,1,0,0,0,0,0,0,0,0,0,0,0,.1,0h0s.7,0,.7,0h0s0,0,0,0c0,0,0,0,0,0,.2,0,.4,0,.7,0,0,0,0,0,0,0,0,0,.2,0,.2,0,.2,0,.3,0,.5,0,.1,0,.2,0,.3,0,0,0,0,0,.1,0,.3,0,.5,0,.8,0,.1,0,.2,0,.3,0,.4,0,.8,0,1.3,0,0,0,.1,0,.2,0,.1,0,.2,0,.3,0,.3,0,.6,0,.8,0,.7,0,1.4,0,2.1,0,.5,0,1,0,1.4,0,1,0,2.1,0,3.3,0,.2,0,.5,0,.7,0,.1,0,.2,0,.4,0,.7,0,1.5,0,2.3,0,.6,0,1.1,0,1.7,0,0,0,0,0,0,0,1.1,0,2.2,0,3.3,0,.6,0,1.2,0,1.8,0,.1,0,.2,0,.3,0,.3,0,.7,0,1,0,0,0,0,0,0,0,.5,0,.9,0,1.4,0,.3,0,.5,0,.8,0,.3,0,.7,0,1,0,0,0,.1,0,.2,0,.8,0,1.6,0,2.4,0,.1,0,.2,0,.3,0,.2,0,.4,0,.5,0,.3,0,.6,0,.9,0,.9,0,1.9,0,2.8,0,.1,0,.3,0,.4,0,.6,0,1.2,0,1.8,0,0,0,.1,0,.2,0,2.3,0,4.3,0,6.1,0,0,0,.1,0,.2,0,.5,0,.9,0,1.3,0,.1,0,.2,0,.3,0,.1,0,.3,0,.4,0,0,0,0,0,0,0,0,0,0,0,0,0,.5,0,1,0,1.4,0,0,0,0,0,.1,0,.1,0,.3,0,.4,0,0,0,.2,0,.2,0,0,0,0,0,0,0,0,0,.1,0,.2,0,0,0,0,0,0,0,0,0,0,0,0,0,0,0,.1,0,.2,0,0,0,0,0,0,0,0,0,0,0,0,0,0,0,0,0,0,0,0,0,0,0,0,0,0,0,.1,0,.2,0,0,0,0,0,0,0,0,0,0,0,0,0,0,0,0,0,0,0,0,0,0,0,0,0,0,0,0,0,0,0h0s0,0,0,0c0,0,0,0,0,0,0,0,0,0,0,0,0,0,0,0,0,0,0,0,0,0,0,0,0,0,0,0,0,0,0,0,0,0,0,0,0,0,0,0,0,0,0,0,0,0,0,0,0,0,0,0,0,0,.1,0,.2-.3.2-.5,0-.2.3-.9.4-1.3,0-.3,0-.5,0-.6,0,.1,0,.3,0,.6,0,.4-.3,1.1-.4,1.3,0,.2,0,.5-.2.5,0,0-7.7.1-16.9.3v3.3c0,.5-.2,1.1,1.9,1.2.6,0,13.7,0,14.3,0,2,0,1.9-1.9,1.9-2.7,0-.7,0-12.9,0-12.9.9-1.2.9-1.7.9-1.9.2-2.8,0-6.9,0-6.9,0-1.4-.2-4.2-.2-4.4ZM109.5,78.1s1.5.7,2,1c.2.1.7.4,1.1.6h0s5.6.6,5.6.6c0,0,0,1.4-.5,1.5-.2,0-2.4.2-2.4.2h-.6c-.7-.5-1.4-1.1-1.7-1.3-.8-.6-3.4-2.6-3.4-2.6h0ZM34.9,81.8c-.5-.1-.5-1.5-.5-1.5l5.6-.6h0c.4-.3.9-.5,1.1-.6.5-.3,2-1,2-1h0s-2.6,1.9-3.4,2.6c-.4.3-1.1.9-1.8,1.4h-1c0,0-1.8-.2-2-.2ZM46.2,76.9c.8-1,1.5-1,1.5-1,8-.8,28.5-.8,28.5-.8s20.6,0,28.5.8c0,0,.8,0,1.5,1,.1.1,4.7,4.6,9.9,11.7,0,0-7.4-.3-12.7.5,0,0-1.5.2-1.7.2-.1,0-3.2.3-11.3,1.6,0,0-13.9-.3-14.4-.3-.5,0-14.4.3-14.4.3-8-1.4-11.1-1.6-11.3-1.6-.1,0-1.7-.2-1.7-.2-5.3-.8-12.7-.5-12.7-.5,5.3-7.2,9.8-11.6,9.9-11.7ZM33.9,95.4c0,0,0-.2.1-.2,0,0,0,0,0,0,0,0,0,0,0,0,0,0,0,0,.2,0,0,0,0,0,0,0,0,0,.1,0,.2,0,.1,0,.2,0,.3,0,.3,0,.6.1.9.2,0,0,.2,0,.3,0,0,0,.2,0,.3,0,1.8.4,4.9,1.1,8.7,2.4-.5-.6-5.8-7.2-9-8.5,0,0,0,0,0,0-.4-.2-1-.3-1-.3h0c3.6-.2,9.5.2,9.6.2s2.9.3,2.9.3c0,0,0,0,0,0,0,0-1.9.4-2.1.4-.1,0-.3,0-.5,0-3.9-.7-8.6-.7-8.8-.7-.1,0-.2,0-.2,0,3.3,1.4,8.9,8.3,9.1,8.6l3,1h0s0,0,0,0c0,0,0,0,0,0v.4c.1,0,.6,1.2.6,1.2h.2c0,0,0,0,0,0,1.6.1,5.3.8,6.7,1,.3,0,.5,0,.6.1.1,0,15.5.5,15.7.5l4.5-.8h0s4.5.8,4.5.8c.1,0,15.5-.5,15.6-.5,0,0,.2,0,.6-.1,1.4-.3,5.1-.9,6.7-1h0s.2,0,.2,0l.5-1.2v-.4c.1,0,.1,0,.2,0h0s3-1.1,3-1.1c.2-.3,5.8-7.2,9.1-8.6,0,0,0,0-.2,0-.2,0-4.9,0-8.8.7-.2,0-.4,0-.5,0-.1,0-2-.4-2.1-.4,0,0,0,0,0,0,0,0,2.8-.3,2.9-.3s6.1-.4,9.6-.3h0c0,.1-.6.2-1,.4,0,0,0,0,0,0-3.2,1.3-8.6,7.9-9,8.5,3.8-1.3,6.9-2,8.7-2.4,0,0,0,0,0,0,.2,0,.3,0,.5-.1,0,0,.1,0,.2,0,.2,0,.4,0,.6-.1,0,0,0,0,0,0,0,0,.2,0,.3,0,0,0,.1,0,.2,0,0,0,0,0,0,0,0,0,.1,0,.2,0,0,0,0,0,0,0,0,0,0,0,0,0,0,0,.1.1.1.2,0,0,0,.1,0,.2,0,0,0,0,0,0,0,0,0,0,0,0,0,0,0,0,0,0,0,0,0,0,0,0,0,0,0,0,0,0,0,0,0,0,0,0,0,0,0,0,0,0,0,0,0,0,0,0,0,0,0,0,0,.1,0,0,0,0,0,0,0,0,0,0,0,.2,0,0,0,0,0,0,0,0,0,0,0,.1,0,0,0,0,0,0,0,.1,0,.3-.2.4,0,0,0,0,0,0,0,0,0,.1,0,.2,0,0,0,0,0,0,0,0,0,.2-.1.3,0,0,0,0,0,0,0,0,0,.2-.1.3,0,0,0,0,0,0,0,0,0,.2-.1.3,0,0,0,0,0,0,0,.1,0,.2-.1.3,0,0,0,0,0,0,0,.1,0,.2-.1.3,0,0,0,0,0,0-.2.5-.5,1.1-.8,1.8h0s0,0,0,0c-.3.7-.7,1.6-1.2,2.5,0,.1-.3.1-.5.1-.1,0-1.5,0-2.8.1,0,0,0,0,0,0-.2,0-.5,0-.7,0,0,0,0,0,0,0-.1,0-.2,0-.3,0-.6,0-.9,0-1,.1-.2,0-.4,0-.5,0-.2,0-.3,0-.5-.1l-4.6-2.6c-.4-.2-.6-.3-.7-.3h0s-.2,0-.2,0c-1.6.1-5.2.8-6.6,1-.3,0-.5,0-.6.1-.1,0-15,.5-15.7.5l-4.5-.8-4.5.8c-.6,0-15.5-.5-15.7-.5,0,0-.2,0-.6-.1-1.4-.3-5.1-.9-6.6-1h-.2c0,0,0,0,0,0,0,0-.3.2-.7.3l-4.6,2.6c-.2,0-.3.1-.5.1-.1,0-.3,0-.5,0,0,0-.4,0-1-.1,0,0-.2,0-.3,0,0,0,0,0,0,0-.2,0-.5,0-.7,0,0,0,0,0,0,0-1.3,0-2.7-.1-2.8-.1-.2,0-.4,0-.5-.1-.4-.9-.8-1.7-1.2-2.5h0c-.3-.7-.6-1.3-.8-1.8,0,0,0,0,0,0,0-.1,0-.2-.1-.3,0,0,0,0,0,0,0-.1-.1-.2-.1-.3,0,0,0,0,0,0,0,0,0-.2-.1-.3,0,0,0,0,0,0,0,0,0-.2-.1-.3,0,0,0,0,0,0,0,0,0-.2-.1-.3,0,0,0,0,0,0,0,0,0-.1,0-.2,0,0,0,0,0,0,0-.2-.1-.3-.2-.4,0,0,0,0,0,0,0,0,0,0,0-.1,0,0,0,0,0,0,0,0,0-.1,0-.2,0,0,0,0,0,0,0,0,0,0,0-.1,0,0,0,0,0,0,0,0,0,0,0,0,0,0,0,0,0,0,0,0,0,0,0,0,0,0,0,0,0,0,0,0,0,0,0,0,0,0,0,0,0,0,0,0,0,0,0,0,0,0,0-.1,0-.2ZM119.6,116.4c-.7,1.3-1.9,2.8-2.2,3.2-.3.4-.7.5-1,.5s-13.2,0-13.9,0c-.7,0-1.2-.3-1.3-.4-3.4-1.7-4.7-2.5-5-2.7.7,0,1.4,0,2.1,0l5.4-.2c.2,0,.4,0,.5,0l7-.2c1.7,0,2.4-.1,2.5-.1,4-.3,4.7-.4,4.7-.4s0-.2,0-.2c0,0,0-.1-.1-.1-2.7-.5-3.4-.5-4-.5-.5,0-.6,0-.7,0s-.5.2-.7.3c-.2,0-.2,0-.9.1-.1,0-.2,0-.4,0h0c-3.7.1-12.7.3-13.2.3s-1.6,0-2,0-3.9-.7-4.6-.7c-.7,0-2.5,0-2.5,0,.2,0,.2.3.2.3v1.1c.3,0,.6,0,.9,0l.9,2.7h0s-.5-1.5-.5-1.5h-29.1l-.5,1.5h0s.9-2.8.9-2.8c0,0,0,0,0,0h0s0,0,0,0h0c.3,0,.5,0,.8,0v-1.1s0-.3.2-.3c0,0-1.8,0-2.5,0-.7,0-4.2.6-4.6.7-.4,0-1.4,0-2,0s-9.5-.1-13.2-.3h0c-.1,0-.2,0-.4,0-.7,0-.8,0-.9-.1-.2,0-.6-.3-.7-.3,0,0-.2,0-.7,0-.5,0-1.3,0-4,.5,0,0-.1,0-.1.1s0,.1,0,.2.7.1,4.7.4c.1,0,.8,0,2.5.1l7,.2c0,0,.3,0,.5,0l5.4.2c.7,0,1.4,0,2.1,0-.3.2-1.6,1-5,2.7-.1,0-.6.3-1.3.4-.7,0-13.7,0-13.9,0s-.7,0-1-.5c-.3-.4-1.5-1.9-2.2-3.2,0-.2-.2-.4-.2-.6,0-.2,0-.4.2-.6.1-.3,1.6-3.4,3.3-5.2.2-.2.6-.8,2.1-.6.8.1,11.2,2.5,38,3.1,26.8-.6,37.3-3,38-3.1,1.5-.2,1.9.4,2.1.6,1.7,1.8,3.1,5,3.3,5.2.1.3.2.5.2.6,0,.3-.1.5-.2.6Z"/>
  </g>
  <g>
    <path class="cls-2" d="M164.4,78.4h10.3l5.2,20.1c1.3,4.7,2.2,9.1,3.5,13.8h.3c1.3-4.8,2.2-9.1,3.5-13.8l5.1-20.1h10l-13,43.2h-11.7l-13-43.2Z"/>
    <path class="cls-1" d="M203.4,116.1l5.6-6.7c3.1,2.7,7,4.5,10.6,4.5s6.1-1.6,6.1-4.2-2.5-3.6-6.2-5.1l-5.6-2.4c-4.5-1.8-8.7-5.5-8.7-11.8s6.4-12.9,15.4-12.9,10.2,2,13.9,5.7l-4.9,6.1c-2.8-2.2-5.5-3.4-9-3.4s-5.5,1.4-5.5,3.9,2.8,3.6,6.6,5.1l5.5,2.2c5.3,2.1,8.6,5.6,8.6,11.7s-6,13.4-16.3,13.4-11.6-2.1-16-6.2Z"/>
  </g>
</svg>