<?xml version="1.0" encoding="UTF-8"?>
<svg id="Layer_1" data-name="Layer 1" xmlns="http://www.w3.org/2000/svg" version="1.1" xmlns:xlink="http://www.w3.org/1999/xlink" viewBox="0 0 300 300">
  <defs>
    <style>
      .cls-1 {
        fill: url(#Degradado_sin_nombre_5-2);
      }

      .cls-1, .cls-2, .cls-3, .cls-4 {
        stroke-width: 0px;
      }

      .cls-2 {
        fill: #00aeef;
      }

      .cls-3 {
        fill: #ff0c00;
      }

      .cls-4 {
        fill: url(#Degradado_sin_nombre_5);
      }
    </style>
    <linearGradient id="Degradado_sin_nombre_5" data-name="Degradado sin nombre 5" x1="126" y1="149.4" x2="152.2" y2="149.4" gradientUnits="userSpaceOnUse">
      <stop offset="0" stop-color="#ff4c3c"/>
      <stop offset="1" stop-color="#ee053d"/>
      <stop offset="1" stop-color="#ee023e"/>
    </linearGradient>
    <linearGradient id="Degradado_sin_nombre_5-2" data-name="Degradado sin nombre 5" x1="152.2" y1="149.9" x2="173.2" y2="149.9" xlink:href="#Degradado_sin_nombre_5"/>
  </defs>
  <path class="cls-3" d="M112.2,185.2v-28.2h11v-13.8h-23.9v32.5L23.7,118l75.6-57.7v32.4h86.7c1.8,0,3.4-.8,4.5-2,1.2-1.3,1.9-3,1.9-4.9,0-3.8-2.9-6.9-6.4-6.9h-73.8v-28.1c0-7.2-7.6-11.4-13.1-7.2L9,112.3c-1.8,1.4-2.7,3.5-2.7,5.7s.9,4.3,2.7,5.7l90.1,68.7c5.5,4.2,13.1,0,13.1-7.2Z"/>
  <path class="cls-2" d="M291,176.3l-90.1-68.7c-5.5-4.2-13.1,0-13.1,7.2v28.2h-9.5v13.8h22.4v-32.5l75.6,57.7-75.6,57.7v-32.4h-86.7c-1.8,0-3.4.8-4.5,2-1.2,1.3-1.9,3-1.9,4.9,0,3.8,2.9,6.9,6.4,6.9h73.8v28.1c0,7.2,7.6,11.4,13.1,7.2l90.1-68.7c1.8-1.4,2.7-3.5,2.7-5.7s-.9-4.3-2.7-5.7Z"/>
  <g>
    <path class="cls-4" d="M141.7,163.7h-5.2c-.5,0-.8-.2-.9-.7l-9.5-27.1c0-.1,0-.2,0-.4,0-.2,0-.3.2-.5.1-.1.3-.2.5-.2h6.8c.5,0,.8.2.9.7l4.7,16h0l4.7-16c.1-.5.4-.7.9-.7h6.8c.2,0,.4,0,.5.2.1.1.2.2.2.4s0,.3,0,.4l-9.5,27.1c-.2.5-.5.7-.9.7Z"/>
    <path class="cls-1" d="M157.2,163.5c-1.8-.9-3.4-2.1-4.8-3.8-.2-.2-.2-.4-.2-.6s0-.5.3-.7l4-4.1c.2-.2.4-.3.6-.3s.4.1.6.3c.8.8,1.6,1.5,2.5,1.9.9.4,1.8.6,2.8.6,1.6,0,2.4-.5,2.4-1.4s0-.6-.2-.8-.5-.5-1-.8-1.5-.7-2.7-1.1c-2-.7-3.8-1.7-5.3-3.1-1.5-1.4-2.3-3.5-2.3-6.1s.3-2.9.9-4.3c.6-1.3,1.6-2.4,3-3.2,1.4-.8,3.1-1.2,5.3-1.2s3.6.4,5.2,1.1c1.6.7,3.1,1.7,4.4,2.9.2.2.3.4.3.6s0,.4-.2.6l-3.6,4.4c-.2.2-.4.3-.6.3s-.3,0-.5-.2c-.7-.6-1.4-1-2.2-1.4-.8-.4-1.6-.6-2.4-.6s-1,.1-1.2.3-.4.6-.4,1,.1.4.3.6c.2.2.5.4.9.5.4.2,1,.4,1.9.8l.5.2c1.8.7,3.3,1.5,4.4,2.3,1.2.8,2,1.8,2.6,3,.6,1.1.9,2.5.9,4.1s-.4,3.5-1.2,4.9c-.8,1.4-2,2.5-3.5,3.3-1.5.8-3.3,1.2-5.4,1.2s-4-.4-5.8-1.3Z"/>
  </g>
</svg>