<?xml version="1.0" encoding="UTF-8"?>
<svg id="Layer_1" data-name="Layer 1" xmlns="http://www.w3.org/2000/svg" version="1.1" viewBox="0 0 300 300">
  <defs>
    <style>
      .cls-1 {
        fill: #80b264;
        stroke-width: 0px;
      }
    </style>
  </defs>
  <path class="cls-1" d="M283.4,84.9l-13,1.5-7-29.8L0,118.7l29.3,124.6h270.7V115.3h-13l-3.5-30.4ZM36.8,120.4l194.4-45.8c2.6,10.9,12.3,18.3,23.1,18.3s3.6-.2,5.5-.6l13.8,58.8c-12.8,3-20.7,15.8-17.7,28.6l-194.4,45.8c-2.6-10.9-12.3-18.3-23.1-18.3-1.8,0-3.6.2-5.5.6l-13.8-58.8c12.8-3,20.7-15.8,17.7-28.6ZM261.8,206.2l-147.6,17.1,86.5-20.4,51.3-6c.4-2.3,1.1-4.5,2-6.6l14.2-3.3c-4.7,4.9-7.2,11.8-6.4,19.1ZM204.2,223h51.6c.7-2.2,1.6-4.3,2.8-6.3l14.5-1.7c-5.2,4.4-8.6,10.9-8.6,18.3H116l88.3-10.3Z"/>
  <path class="cls-1" d="M47.6,128.4c-.8,11-7,21-16.5,26.7l9.9,41.9c11.2.8,21.1,7.1,26.7,16.5l177.5-41.8c.8-11,7-21,16.5-26.7l-9.9-41.9c-11.2-.8-21.1-7.1-26.7-16.5l-177.5,41.8ZM151,185.4l-1.4-6c-3.5.2-6.8-.5-10.1-2.1-4.5-2.2-7.3-5.8-8.4-10.9v-.2s6.9-1.6,6.9-1.6c.8,3.6,1.9,5.1,4.6,6.4,1.6.8,3.4,1.2,5.2,1.2l-4.4-18.7c-4-.5-7.3-1.5-10.1-3.1-3.6-2.1-6.5-5.6-7.5-9.8-1-4.4,0-9.1,2.6-12.8,1.8-2.7,4.3-4.8,7.6-6.1l-1.3-5.4,7.1-1.7,1.3,5.3c4.2-.4,8.1.4,11.2,2.4,4,2.6,6,6.8,7,11.3v.2s-6.9,1.6-6.9,1.6c-.8-3.3-2.4-5.7-4.8-7.3-1.5-1-3-1.4-4.8-1.3l4.4,18.8c4.9.5,8.9,2.1,12,4.1,3.4,2.2,5.6,5.4,6.6,9.7,1.1,4.5.3,8.6-2.3,12.1-2.1,2.8-5,4.8-8.7,6.2l1.4,5.8-7.1,1.7Z"/>
  <path class="cls-1" d="M155.1,170.8c1.7-.6,2.9-1.4,3.9-2.7,1.6-2.1,2.2-4,1.5-6.7-.6-2.6-1.8-4-3.9-5.3-1.4-.9-3.1-1.6-5.4-2l3.9,16.7Z"/>
  <path class="cls-1" d="M137.7,128.9c-1.5.8-2.6,1.8-3.4,3-1.4,2.1-1.9,4-1.2,6.8.6,2.4,1.9,3.7,4.2,4.9,1.1.6,2.5,1,4.2,1.4l-3.8-16.1Z"/>
</svg>