<?xml version="1.0" encoding="UTF-8"?>
<svg id="Layer_1" data-name="Layer 1" xmlns="http://www.w3.org/2000/svg" version="1.1" viewBox="0 0 300 300">
  <defs>
    <style>
      .cls-1 {
        fill: #fff;
      }

      .cls-1, .cls-2 {
        stroke-width: 0px;
      }

      .cls-2 {
        fill: #1877f2;
      }
    </style>
  </defs>
  <path class="cls-2" d="M300,150C300,67.2,232.8,0,150,0S0,67.2,0,150s58.9,141.4,134.5,149.2v-100.8h-36.9v-42h36.9v-32c0-36.4,21.7-56.5,54.9-56.5s32.5,2.8,32.5,2.8v35.8h-18.3c-18.1,0-23.7,11.2-23.7,22.7v27.3h40.3l-6.4,42h-33.9v98.6c68.5-13.9,120.1-74.4,120.1-147Z"/>
  <path class="cls-1" d="M213.8,198.4l6.4-42h-40.3v-27.3c0-11.5,5.6-22.7,23.7-22.7h18.3v-35.8s-16.6-2.8-32.5-2.8c-33.2,0-54.9,20.1-54.9,56.5v32h-36.9v42h36.9v100.8c5.1.5,10.3.8,15.5.8,10.2,0,20.2-1,29.9-3v-98.6h33.9Z"/>
</svg>