<?xml version="1.0" encoding="UTF-8"?>
<svg id="Layer_1" data-name="Layer 1" xmlns="http://www.w3.org/2000/svg" version="1.1" viewBox="0 0 300 300">
  <defs>
    <style>
      .cls-1 {
        fill: #e20000;
        stroke-width: 0px;
      }
    </style>
  </defs>
  <path class="cls-1" d="M158.6,147.7h0c-11.9,0-22.8-4.5-31-12,8.2,7.4,19.1,12,31,12Z"/>
  <path class="cls-1" d="M158.6,55.5c-11.9,0-22.8,4.5-31,12,8.2-7.4,19.1-12,31-12h0Z"/>
  <path class="cls-1" d="M158.6.6C102.9.6,57.7,45.8,57.7,101.6s100.9,199.1,100.9,199.1c0,0,100.9-143.3,100.9-199.1S214.4.6,158.6.6ZM158.6,147.7h0c-11.9,0-22.8-4.5-31-12-1.6-1.5-3.2-3.1-4.6-4.8-6.6-8-10.5-18.2-10.5-29.3s4-21.4,10.5-29.3c1.4-1.7,2.9-3.3,4.6-4.8,8.2-7.4,19.1-12,31-12h0c25.5,0,46.1,20.7,46.1,46.1s-20.7,46.1-46.1,46.1Z"/>
</svg>