<?xml version="1.0" encoding="utf-8"?>
<!-- Generator: Adobe Illustrator 28.2.0, SVG Export Plug-In . SVG Version: 6.00 Build 0)  -->
<svg version="1.1" id="Layer_1" xmlns="http://www.w3.org/2000/svg" xmlns:xlink="http://www.w3.org/1999/xlink" x="0px" y="0px"
	 viewBox="0 0 300 300" style="enable-background:new 0 0 300 300;" xml:space="preserve">
<style type="text/css">
	.st0{fill:#FFFFFF;}
	.st1{fill:none;}
	.st2{fill:#141613;}
</style>
<path class="st2" d="M284.8,208.6c-7.5-3.7-43.7-21.4-50.5-23.8c-6.8-2.5-11.7-3.7-16.6,3.7c-4.9,7.3-19.2,23.8-23.4,28.6
	c-4.4,4.9-8.6,5.5-16.1,1.8c-7.3-3.7-31.1-11.3-59.3-36.4c-21.8-19.3-36.8-43.3-41-50.6c-4.2-7.3-0.4-11.3,3.2-14.9
	c3.4-3.4,7.3-8.6,11.1-12.8c1-1.3,1.8-2.4,2.7-3.5c1.7-2.7,3-5.2,4.7-8.7c2.5-4.9,1.3-9.2-0.6-12.8c-1.8-3.7-16.6-39.7-22.8-54.4
	C70.2,10.1,64,12.6,59.6,12.6c-4.2,0-9.2-0.7-14.1-0.7c-4.9,0-13,1.8-19.7,9.2C19,28.4,0,46.1,0,82.2c0,8.5,1.6,16.9,3.8,25
	c7.5,25.8,23.5,47.1,26.4,50.7c3.7,4.8,49.9,84.3,126,110.6c71.7,24.8,75.1,19.4,88.7,18.2c13.5-1.1,43.7-17.6,49.7-34.8
	c6.2-17.1,6.2-31.7,4.4-34.8C297.1,214.1,292.2,212.3,284.8,208.6z"/>
</svg>
