<?xml version="1.0" encoding="UTF-8"?>
<svg id="Layer_1" data-name="Layer 1" xmlns="http://www.w3.org/2000/svg" version="1.1" viewBox="0 0 300 300">
  <defs>
    <style>
      .cls-1 {
        fill: #fff;
      }

      .cls-1, .cls-2, .cls-3, .cls-4 {
        stroke-width: 0px;
      }

      .cls-1, .cls-3, .cls-4 {
        fill-rule: evenodd;
      }

      .cls-2 {
        fill: #000;
      }

      .cls-3 {
        fill: #ff1753;
        opacity: .8;
      }

      .cls-4 {
        fill: #00c9d0;
      }
    </style>
  </defs>
  <circle class="cls-2" cx="150" cy="150" r="150"/>
  <g>
    <path class="cls-3" d="M197.7,118.9c14.4,10.3,32.1,16.4,51.2,16.4v-36.7c-3.6,0-7.2-.4-10.7-1.1v28.9c-19.1,0-36.8-6.1-51.2-16.4v74.9c0,37.5-30.4,67.9-67.9,67.9s-27-4.2-37.8-11.5c12.3,12.6,29.5,20.4,48.5,20.4,37.5,0,67.9-30.4,67.9-67.9v-74.9h0ZM210.9,81.9c-7.4-8.1-12.2-18.5-13.3-30v-4.7h-10.2c2.6,14.6,11.3,27.1,23.4,34.7h0ZM105,212.5c-4.1-5.4-6.3-12-6.3-18.8,0-17.1,13.9-31,31.1-31,3.2,0,6.4.5,9.4,1.5v-37.5c-3.6-.5-7.2-.7-10.7-.6v29.2c-3-1-6.2-1.5-9.4-1.5-17.2,0-31.1,13.9-31.1,31s6.9,22.6,17.1,27.7Z"/>
    <path class="cls-1" d="M186.9,110c14.4,10.3,32.1,16.4,51.2,16.4v-28.9c-10.7-2.3-20.1-7.8-27.2-15.6-12.1-7.6-20.9-20.1-23.4-34.7h-26.8v146.6c0,17.1-13.9,30.9-31.1,30.9s-19-4.8-24.7-12.2c-10.1-5.1-17.1-15.6-17.1-27.7,0-17.1,13.9-31,31.1-31s6.5.5,9.4,1.5v-29.2c-36.8.8-66.5,30.8-66.5,67.8s7.4,35.2,19.4,47.4c10.8,7.2,23.8,11.5,37.8,11.5,37.5,0,67.9-30.4,67.9-67.9v-74.9Z"/>
    <path class="cls-4" d="M238.1,97.5v-7.8c-9.6,0-19-2.7-27.2-7.8,7.2,7.9,16.7,13.3,27.2,15.6ZM187.5,47.2c-.2-1.4-.4-2.8-.6-4.2v-4.7h-36.9v146.6c0,17.1-13.9,30.9-31.1,30.9s-9.8-1.2-14-3.3c5.7,7.4,14.6,12.2,24.7,12.2,17.1,0,31-13.8,31.1-30.9V47.2h26.8ZM128.4,126v-8.3c-3.1-.4-6.2-.6-9.3-.6-37.5,0-67.9,30.4-67.9,67.8s11.9,44.2,30.1,56.4c-12-12.2-19.3-29-19.3-47.4,0-37,29.6-67.1,66.5-67.8h0Z"/>
  </g>
</svg>