<?xml version="1.0" encoding="UTF-8"?>
<svg id="Layer_1" data-name="Layer 1" xmlns="http://www.w3.org/2000/svg" version="1.1" viewBox="0 0 300 300">
  <defs>
    <style>
      .cls-1 {
        fill: #e20000;
        stroke-width: 0px;
      }
    </style>
  </defs>
  <path class="cls-1" d="M186.1,153.8l-49.4,24.4c-1.9,1-8.5-.4-8.5-2.6v-50.1c0-2.2,6.6-3.6,8.6-2.5l47.2,25.7c2,1.1,4.1,4,2.1,5.1ZM300,150c0,82.8-67.2,150-150,150S0,232.8,0,150,67.2,0,150,0s150,67.2,150,150ZM250.9,124.4c0-23.8-19.3-43-43-43h-110.1c-23.8,0-43,19.3-43,43v51.2c0,23.8,19.3,43,43,43h110.1c23.8,0,43-19.3,43-43v-51.2Z"/>
</svg>